<svg xmlns="http://www.w3.org/2000/svg" xmlns:xlink="http://www.w3.org/1999/xlink" viewBox="0 0 100 115"><defs><linearGradient id="a" x1="50.24" y1="85.24" x2="50.24" y2="14.41" gradientUnits="userSpaceOnUse"><stop offset="0" stop-color="#aa8107"/><stop offset="0.09" stop-color="#9b6d08"/><stop offset="0.17" stop-color="#8b570a"/><stop offset="0.21" stop-color="#915f10"/><stop offset="0.29" stop-color="#a2761f"/><stop offset="0.38" stop-color="#be9a39"/><stop offset="0.39" stop-color="#c19e3c"/><stop offset="0.44" stop-color="#d1b34d"/><stop offset="0.52" stop-color="#e4ce62"/><stop offset="0.61" stop-color="#f2e272"/><stop offset="0.69" stop-color="#faed7b"/><stop offset="0.78" stop-color="#fdf17e"/><stop offset="0.82" stop-color="#f9ea78"/><stop offset="0.87" stop-color="#edd769"/><stop offset="0.94" stop-color="#dbb84f"/><stop offset="1" stop-color="#c3912f"/></linearGradient><linearGradient id="b" x1="1.8" y1="49.44" x2="98.33" y2="49.44" gradientUnits="userSpaceOnUse"><stop offset="0" stop-color="#cfa738"/><stop offset="0.02" stop-color="#c39a33"/><stop offset="0.06" stop-color="#ac812a"/><stop offset="0.1" stop-color="#9e7124"/><stop offset="0.13" stop-color="#996c22"/><stop offset="0.17" stop-color="#9e7227"/><stop offset="0.23" stop-color="#ab8233"/><stop offset="0.29" stop-color="#c19d49"/><stop offset="0.36" stop-color="#e0c366"/><stop offset="0.39" stop-color="#f2d977"/><stop offset="0.56" stop-color="#ffa"/><stop offset="0.7" stop-color="#e1ab39"/><stop offset="0.73" stop-color="#c99431"/><stop offset="0.78" stop-color="#a46f25"/><stop offset="0.84" stop-color="#86531b"/><stop offset="0.9" stop-color="#713e15"/><stop offset="0.95" stop-color="#643210"/><stop offset="1" stop-color="#602e0f"/></linearGradient></defs><title>logo</title><path d="M10.43,110.91H8.72l-4-4.79a3,3,0,0,1-.28-.37h0v5.16H3.15V100.44H4.37v4.92h0a2.87,2.87,0,0,1,.28-.36l3.91-4.56h1.53l-4.49,5Z" style="fill:#eac954"/><path d="M14.07,100.44v1.05H13v8.37h1v1.05H10.8v-1.05h1v-8.37h-1v-1.05Z" style="fill:#eac954"/><path d="M24.24,110.91h-1.5l-5.39-8.35a3.45,3.45,0,0,1-.34-.66h0a10.91,10.91,0,0,1,.06,1.44v7.57H15.8V100.44h1.59l5.24,8.22c.22.34.36.57.42.7h0a11,11,0,0,1-.07-1.54v-7.38h1.23Z" style="fill:#eac954"/><path d="M34.82,110.2a7,7,0,0,1-3.51.89,4.79,4.79,0,0,1-3.63-1.45,5.3,5.3,0,0,1-1.38-3.83,5.44,5.44,0,0,1,1.54-4,5.24,5.24,0,0,1,3.9-1.56,6.63,6.63,0,0,1,2.87.55v1.36a5.51,5.51,0,0,0-3-.8,3.76,3.76,0,0,0-2.88,1.21,5.06,5.06,0,0,0-.08,6.26A3.66,3.66,0,0,0,31.46,110a4.38,4.38,0,0,0,2.13-.49v-2.94H31.3v-1.11h3.52Z" style="fill:#eac954"/><path d="M41.35,110.91V100.44h3a3.26,3.26,0,0,1,2.15.66,2.15,2.15,0,0,1,.8,1.73,2.55,2.55,0,0,1-.48,1.55,2.6,2.6,0,0,1-1.33.93v0a2.67,2.67,0,0,1,1.69.8,2.46,2.46,0,0,1,.64,1.76,2.74,2.74,0,0,1-1,2.18,3.59,3.59,0,0,1-2.43.83Zm1.23-9.36v3.38h1.26a2.38,2.38,0,0,0,1.58-.49,1.69,1.69,0,0,0,.58-1.37q0-1.53-2-1.53Zm0,4.48v3.77h1.66a2.5,2.5,0,0,0,1.68-.51,1.75,1.75,0,0,0,.6-1.4Q46.51,106,44,106Z" style="fill:#eac954"/><path d="M54.14,111.09a4.6,4.6,0,0,1-3.57-1.47,5.45,5.45,0,0,1-1.34-3.82,5.77,5.77,0,0,1,1.37-4,4.77,4.77,0,0,1,3.72-1.5,4.49,4.49,0,0,1,3.49,1.46,5.46,5.46,0,0,1,1.33,3.82,5.79,5.79,0,0,1-1.36,4.05A4.68,4.68,0,0,1,54.14,111.09Zm.09-9.71a3.37,3.37,0,0,0-2.68,1.19,5.29,5.29,0,0,0,0,6.24A3.27,3.27,0,0,0,54.14,110a3.44,3.44,0,0,0,2.72-1.12,4.6,4.6,0,0,0,1-3.15,4.8,4.8,0,0,0-1-3.21A3.31,3.31,0,0,0,54.23,101.38Z" style="fill:#eac954"/><path d="M67.38,101.55h-3v9.36H63.13v-9.36h-3v-1.11h7.27Z" style="fill:#eac954"/><path d="M75.22,101.55h-3v9.36H71v-9.36H68v-1.11h7.27Z" style="fill:#eac954"/><path d="M82.3,110.91H76.86V100.44h1.23v9.36H82.3Z" style="fill:#eac954"/><path d="M89.45,110.91H83.9V100.44h5.32v1.11H85.13V105h3.78v1.1H85.13v3.67h4.32Z" style="fill:#eac954"/><path d="M91,110.49V109a2.82,2.82,0,0,0,.6.39,4.79,4.79,0,0,0,.73.3,5.74,5.74,0,0,0,.77.19,4.29,4.29,0,0,0,.72.07,2.81,2.81,0,0,0,1.69-.42,1.58,1.58,0,0,0,.37-1.95,2.09,2.09,0,0,0-.51-.57,5.13,5.13,0,0,0-.78-.5l-1-.5c-.37-.19-.71-.37-1-.56a4.4,4.4,0,0,1-.83-.63,2.62,2.62,0,0,1-.55-.78,2.66,2.66,0,0,1,.11-2.26,2.67,2.67,0,0,1,.83-.87,3.73,3.73,0,0,1,1.16-.51,5.37,5.37,0,0,1,1.33-.17,5.13,5.13,0,0,1,2.26.37V102a4.09,4.09,0,0,0-2.38-.64,3.9,3.9,0,0,0-.8.08,2.26,2.26,0,0,0-.72.27,1.58,1.58,0,0,0-.51.49,1.3,1.3,0,0,0-.2.73,1.5,1.5,0,0,0,.15.69,1.7,1.7,0,0,0,.44.53,4.37,4.37,0,0,0,.71.47l1,.5q.56.28,1.07.58a4.81,4.81,0,0,1,.88.68,3,3,0,0,1,.6.82,2.32,2.32,0,0,1,.22,1,2.63,2.63,0,0,1-.3,1.31,2.48,2.48,0,0,1-.82.87,3.55,3.55,0,0,1-1.19.49,6.49,6.49,0,0,1-1.42.15,5.75,5.75,0,0,1-.61,0c-.24,0-.49-.07-.74-.12a6,6,0,0,1-.72-.19A2.26,2.26,0,0,1,91,110.49Z" style="fill:#eac954"/><path d="M4.39,93.5c-.94-1.4-.25-2.83-.24-4.21,0-.89-.3-1.87.36-2.69-.68-.82.4-1.75-.18-2.62-.17-.25.05-.75.08-1.14s.05-.66.06-1c0-.11-.1-.22-.1-.33,0-1.36,0-2.73,0-4.09a13.79,13.79,0,0,1,.33-1.84c0-.14.11-.34,0-.4-.71-.77-.25-1.66-.28-2.49-.07-2.36-.1-4.73-.11-7.09,0-1,.09-2,.1-3,0-1.86,0-3.72,0-5.58,0-1.24,0-2.49,0-3.73,0-.4-.06-.79-.07-1.19-.05-2.49-.11-5-.14-7.46,0-.45.16-.9.17-1.36,0-.72-.06-1.44-.05-2.16,0-2.18,0-4.36,0-6.54,0-.56-.16-1.13-.15-1.69,0-1,.07-2.08.1-3.12,0-.27-.07-.54-.06-.82,0-1.41.07-2.81.07-4.22,0-.48-.13-1-.16-1.43,0-.82.06-1.64.08-2.46,0-.24,0-.47,0-.71a5.23,5.23,0,0,0,0-.89c-.11-.51-.45-1,.07-1.52.09-.08,0-.49-.11-.6-.58-.5-.46-.91.12-1.28-.7-1.35.42-3-.79-4.17l.84-.32a5.24,5.24,0,0,1-.51-3.24c0-.32-.33-.66-.44-1S3,6,3.21,5.7A2,2,0,0,1,4.65,5.2c3,0,6,.22,9,.24,3.69,0,7.37,0,11.06,0,.91,0,1.82.14,2.73.13s1.76-.17,2.64-.23a1,1,0,0,1,1.07,1.11Q31,10.46,31,14.52c0,3.25-.08,6.49-.12,9.74,0,2.47-.06,4.94-.06,7.41a1.11,1.11,0,0,0,1.69,1c1.19-.74,2.48-1.42,2.87-3a.57.57,0,0,1,.21-.35A5.86,5.86,0,0,0,38,26.89c.18-.3.4-.54.84-.21s.54.08.57-.37a.82.82,0,0,1,.43-.59c1.23-.48,2.49-.88,3.72-1.37a2.2,2.2,0,0,0,.9-.75c.82-1.14,1.58-2.31,2.38-3.47.27-.4.55-.81.85-1.18a17.71,17.71,0,0,1,1.41-1.61c1.39-1.33,2.79-2.66,4.24-3.93.6-.52,1.4-.81,2-1.34.88-.78,1.64-1.7,2.49-2.51a4.85,4.85,0,0,1,4.87-1,8.29,8.29,0,0,1,1.08.35,3.43,3.43,0,0,1,2.12,2.4,61.82,61.82,0,0,0,2.47,5.83c.92,2.11,1.85,4.21,2.76,6.32a30,30,0,0,1,1.27,3.11,3.22,3.22,0,0,1-.71,2.83c-.13.18-.48.21-.75.33a2,2,0,0,1-1.45,1.7,21.83,21.83,0,0,1-5.85,1.48.87.87,0,0,0-.55.22A11.17,11.17,0,0,1,59.83,35a5,5,0,0,0-1.58,1.38q-1.79,2.34-3.45,4.78c-1,1.45-1.76,3-2.82,4.42a41.73,41.73,0,0,0-3,5.35,49.09,49.09,0,0,0-2.21,4.69c-.84,2-1.72,3.91-2.37,5.93-1,3,.56,6.64,4.23,7.09A6.67,6.67,0,0,0,53.51,67c1.3-1,2.67-1.83,4-2.76.84-.6,1.64-1.26,2.49-1.85,1-.72,2.11-1.38,3.17-2.07l.15-.09c1.05-.82,2.07-1.7,3.17-2.46.9-.62,1.92-1.06,2.83-1.66C70.91,55.1,72.38,53.84,74,53c.94-.5,1.5-1.32,2.33-1.84s2-1.11,2.93-1.71a12.52,12.52,0,0,0,2-1.47,1,1,0,0,1,1.52-.08c.67.6,1.28,1.26,2,1.85,1.11,1,1.24,1,2.49.24,1.59-.91,3.1.07,3.51,1.7a2.69,2.69,0,0,0,1.1,1.57c1.06.83,2,1.75,3,2.66a.78.78,0,0,1,.15.56c-.11,1.44.77,2.34,1.71,3.23a2,2,0,0,1,.54,1c0,.11-.47.35-.75.49-1.38.69-2.77,1.35-4.14,2s-2.74,1.36-4.06,2.12-2.42,1.57-3.64,2.35c-1.86,1.2-3.76,2.35-5.6,3.59-1,.7-2,1.55-3,2.3-1.18.87-2.4,1.67-3.57,2.56Q70.25,77.88,68,79.72c-1.48,1.2-2.93,2.45-4.39,3.68a2.17,2.17,0,0,0-.48.5c-1.51,2.52-3.93,3.57-6.65,4.07a34.18,34.18,0,0,1-5.56.71,29.8,29.8,0,0,1-6.66-.5,46.57,46.57,0,0,0-4.63-.93,5.46,5.46,0,0,1-1.69-.15c-.88-.43-1.64-1.12-2.5-1.61a20.36,20.36,0,0,0-2.56-1.17c-.44-.17-.64.12-.62.56.06,1.33.13,2.66.16,4s.05,2.54,0,3.8c0,.67-.71,1-1.61.91-2-.12-4-.16-6.06-.21s-3.88-.08-5.83-.1c-1.42,0-2.85,0-4.27,0-1.15,0-2.29.2-3.44.23-.52,0-1.05-.23-1.58-.24a7.69,7.69,0,0,0-1.23.25,1.69,1.69,0,0,1-.85,0A4.52,4.52,0,0,0,4.39,93.5Z" style="fill:url(#a)"/><path d="M4.39,93.5c-.94-1.4-.25-2.83-.24-4.21,0-.89-.3-1.87.36-2.69-.68-.82.4-1.75-.18-2.62-.17-.25.05-.75.08-1.14s.05-.66.06-1c0-.11-.1-.22-.1-.33,0-1.36,0-2.73,0-4.09a13.79,13.79,0,0,1,.33-1.84c0-.14.11-.34,0-.4-.71-.77-.25-1.66-.28-2.49-.07-2.36-.1-4.73-.11-7.09,0-1,.09-2,.1-3,0-1.86,0-3.72,0-5.58,0-1.24,0-2.49,0-3.73,0-.4-.06-.79-.07-1.19-.05-2.49-.11-5-.14-7.46,0-.45.16-.9.17-1.36,0-.72-.06-1.44-.05-2.16,0-2.18,0-4.36,0-6.54,0-.56-.16-1.13-.15-1.69,0-1,.07-2.08.1-3.12,0-.27-.07-.54-.06-.82,0-1.41.07-2.81.07-4.22,0-.48-.13-1-.16-1.43,0-.82.06-1.64.08-2.46,0-.24,0-.47,0-.71a5.23,5.23,0,0,0,0-.89c-.11-.51-.45-1,.07-1.52.09-.08,0-.49-.11-.6-.58-.5-.46-.91.12-1.28-.7-1.35.42-3-.79-4.17l.84-.32a5.24,5.24,0,0,1-.51-3.24c0-.32-.33-.66-.44-1S3,6,3.21,5.7A2,2,0,0,1,4.65,5.2c3,0,6,.22,9,.24,3.69,0,7.37,0,11.06,0,.91,0,1.82.14,2.73.13s1.76-.17,2.64-.23a1,1,0,0,1,1.07,1.11Q31,10.46,31,14.52c0,3.25-.08,6.49-.12,9.74,0,2.47-.06,4.94-.06,7.41a1.11,1.11,0,0,0,1.69,1c1.19-.74,2.48-1.42,2.87-3a.57.57,0,0,1,.21-.35A5.86,5.86,0,0,0,38,26.89c.18-.3.4-.54.84-.21s.54.08.57-.37a.82.82,0,0,1,.43-.59c1.23-.48,2.49-.88,3.72-1.37a2.2,2.2,0,0,0,.9-.75c.82-1.14,1.58-2.31,2.38-3.47.27-.4.55-.81.85-1.18a17.71,17.71,0,0,1,1.41-1.61c1.39-1.33,2.79-2.66,4.24-3.93.6-.52,1.4-.81,2-1.34.88-.78,1.64-1.7,2.49-2.51a4.85,4.85,0,0,1,4.87-1,8.29,8.29,0,0,1,1.08.35,3.43,3.43,0,0,1,2.12,2.4,61.82,61.82,0,0,0,2.47,5.83c.92,2.11,1.85,4.21,2.76,6.32a30,30,0,0,1,1.27,3.11,3.22,3.22,0,0,1-.71,2.83c-.13.18-.48.21-.75.33a2,2,0,0,1-1.45,1.7,21.83,21.83,0,0,1-5.85,1.48.87.87,0,0,0-.55.22A11.17,11.17,0,0,1,59.83,35a5,5,0,0,0-1.58,1.38q-1.79,2.34-3.45,4.78c-1,1.45-1.76,3-2.82,4.42a41.73,41.73,0,0,0-3,5.35,49.09,49.09,0,0,0-2.21,4.69c-.84,2-1.72,3.91-2.37,5.93-1,3,.56,6.64,4.23,7.09A6.67,6.67,0,0,0,53.51,67c1.3-1,2.67-1.83,4-2.76.84-.6,1.64-1.26,2.49-1.85,1-.72,2.11-1.38,3.17-2.07l.15-.09c1.05-.82,2.07-1.7,3.17-2.46.9-.62,1.92-1.06,2.83-1.66C70.91,55.1,72.38,53.84,74,53c.94-.5,1.5-1.32,2.33-1.84s2-1.11,2.93-1.71a12.52,12.52,0,0,0,2-1.47,1,1,0,0,1,1.52-.08c.67.6,1.28,1.26,2,1.85,1.11,1,1.24,1,2.49.24,1.59-.91,3.1.07,3.51,1.7a2.69,2.69,0,0,0,1.1,1.57c1.06.83,2,1.75,3,2.66a.78.78,0,0,1,.15.56c-.11,1.44.77,2.34,1.71,3.23a2,2,0,0,1,.54,1c0,.11-.47.35-.75.49-1.38.69-2.77,1.35-4.14,2s-2.74,1.36-4.06,2.12-2.42,1.57-3.64,2.35c-1.86,1.2-3.76,2.35-5.6,3.59-1,.7-2,1.55-3,2.3-1.18.87-2.4,1.67-3.57,2.56Q70.25,77.88,68,79.72c-1.48,1.2-2.93,2.45-4.39,3.68a2.17,2.17,0,0,0-.48.5c-1.51,2.52-3.93,3.57-6.65,4.07a34.18,34.18,0,0,1-5.56.71,29.8,29.8,0,0,1-6.66-.5,46.57,46.57,0,0,0-4.63-.93,5.46,5.46,0,0,1-1.69-.15c-.88-.43-1.64-1.12-2.5-1.61a20.36,20.36,0,0,0-2.56-1.17c-.44-.17-.64.12-.62.56.06,1.33.13,2.66.16,4s.05,2.54,0,3.8c0,.67-.71,1-1.61.91-2-.12-4-.16-6.06-.21s-3.88-.08-5.83-.1c-1.42,0-2.85,0-4.27,0-1.15,0-2.29.2-3.44.23-.52,0-1.05-.23-1.58-.24a7.69,7.69,0,0,0-1.23.25,1.69,1.69,0,0,1-.85,0A4.52,4.52,0,0,0,4.39,93.5Z" style="fill:none;stroke-miterlimit:10;stroke-width:2px;stroke:url(#b)"/></svg>