<svg xmlns="http://www.w3.org/2000/svg" viewBox="0 0 100 115"><title>logo</title><path d="M10.43,110.91H8.72l-4-4.79a3,3,0,0,1-.28-.37h0v5.16H3.15V100.44H4.37v4.92h0a2.87,2.87,0,0,1,.28-.36l3.91-4.56h1.53l-4.49,5Z" style="fill:#fff"/><path d="M14.07,100.44v1.05H13v8.37h1v1.05H10.8v-1.05h1v-8.37h-1v-1.05Z" style="fill:#fff"/><path d="M24.24,110.91h-1.5l-5.39-8.35a3.45,3.45,0,0,1-.34-.66h0a10.91,10.91,0,0,1,.06,1.44v7.57H15.8V100.44h1.59l5.24,8.22c.22.34.36.57.42.7h0a11,11,0,0,1-.07-1.54v-7.38h1.23Z" style="fill:#fff"/><path d="M34.82,110.2a7,7,0,0,1-3.51.89,4.79,4.79,0,0,1-3.63-1.45,5.3,5.3,0,0,1-1.38-3.83,5.44,5.44,0,0,1,1.54-4,5.24,5.24,0,0,1,3.9-1.56,6.63,6.63,0,0,1,2.87.55v1.36a5.51,5.51,0,0,0-3-.8,3.76,3.76,0,0,0-2.88,1.21,5.06,5.06,0,0,0-.08,6.26A3.66,3.66,0,0,0,31.46,110a4.38,4.38,0,0,0,2.13-.49v-2.94H31.3v-1.11h3.52Z" style="fill:#fff"/><path d="M41.35,110.91V100.44h3a3.26,3.26,0,0,1,2.15.66,2.15,2.15,0,0,1,.8,1.73,2.55,2.55,0,0,1-.48,1.55,2.6,2.6,0,0,1-1.33.93v0a2.67,2.67,0,0,1,1.69.8,2.46,2.46,0,0,1,.64,1.76,2.74,2.74,0,0,1-1,2.18,3.59,3.59,0,0,1-2.43.83Zm1.23-9.36v3.38h1.26a2.38,2.38,0,0,0,1.58-.49,1.69,1.69,0,0,0,.58-1.37q0-1.53-2-1.53Zm0,4.48v3.77h1.66a2.5,2.5,0,0,0,1.68-.51,1.75,1.75,0,0,0,.6-1.4Q46.51,106,44,106Z" style="fill:#fff"/><path d="M54.14,111.09a4.6,4.6,0,0,1-3.57-1.47,5.45,5.45,0,0,1-1.34-3.82,5.77,5.77,0,0,1,1.37-4,4.77,4.77,0,0,1,3.72-1.5,4.49,4.49,0,0,1,3.49,1.46,5.46,5.46,0,0,1,1.33,3.82,5.79,5.79,0,0,1-1.36,4.05A4.68,4.68,0,0,1,54.14,111.09Zm.09-9.71a3.37,3.37,0,0,0-2.68,1.19,5.29,5.29,0,0,0,0,6.24A3.27,3.27,0,0,0,54.14,110a3.44,3.44,0,0,0,2.72-1.12,4.6,4.6,0,0,0,1-3.15,4.8,4.8,0,0,0-1-3.21A3.31,3.31,0,0,0,54.23,101.38Z" style="fill:#fff"/><path d="M67.38,101.55h-3v9.36H63.13v-9.36h-3v-1.11h7.27Z" style="fill:#fff"/><path d="M75.22,101.55h-3v9.36H71v-9.36H68v-1.11h7.27Z" style="fill:#fff"/><path d="M82.3,110.91H76.86V100.44h1.23v9.36H82.3Z" style="fill:#fff"/><path d="M89.45,110.91H83.9V100.44h5.32v1.11H85.13V105h3.78v1.1H85.13v3.67h4.32Z" style="fill:#fff"/><path d="M91,110.49V109a2.82,2.82,0,0,0,.6.39,4.79,4.79,0,0,0,.73.3,5.74,5.74,0,0,0,.77.19,4.29,4.29,0,0,0,.72.07,2.81,2.81,0,0,0,1.69-.42,1.58,1.58,0,0,0,.37-1.95,2.09,2.09,0,0,0-.51-.57,5.13,5.13,0,0,0-.78-.5l-1-.5c-.37-.19-.71-.37-1-.56a4.4,4.4,0,0,1-.83-.63,2.62,2.62,0,0,1-.55-.78,2.66,2.66,0,0,1,.11-2.26,2.67,2.67,0,0,1,.83-.87,3.73,3.73,0,0,1,1.16-.51,5.37,5.37,0,0,1,1.33-.17,5.13,5.13,0,0,1,2.26.37V102a4.09,4.09,0,0,0-2.38-.64,3.9,3.9,0,0,0-.8.08,2.26,2.26,0,0,0-.72.27,1.58,1.58,0,0,0-.51.49,1.3,1.3,0,0,0-.2.73,1.5,1.5,0,0,0,.15.69,1.7,1.7,0,0,0,.44.53,4.37,4.37,0,0,0,.71.47l1,.5q.56.28,1.07.58a4.81,4.81,0,0,1,.88.68,3,3,0,0,1,.6.82,2.32,2.32,0,0,1,.22,1,2.63,2.63,0,0,1-.3,1.31,2.48,2.48,0,0,1-.82.87,3.55,3.55,0,0,1-1.19.49,6.49,6.49,0,0,1-1.42.15,5.75,5.75,0,0,1-.61,0c-.24,0-.49-.07-.74-.12a6,6,0,0,1-.72-.19A2.26,2.26,0,0,1,91,110.49Z" style="fill:#fff"/><path d="M98.31,60.48A3,3,0,0,0,97.47,59c-.89-.85-1.47-1.48-1.4-2.43a1.74,1.74,0,0,0-.47-1.38l-.39-.36c-.86-.79-1.75-1.61-2.7-2.35a1.71,1.71,0,0,1-.75-1,3.67,3.67,0,0,0-2.05-2.57,3.22,3.22,0,0,0-2.92.23l-.67.39a4.73,4.73,0,0,1-.66-.52c-.34-.29-.66-.61-1-.92s-.64-.63-1-.92a2,2,0,0,0-2.87.1,11.71,11.71,0,0,1-1.85,1.35c-.45.28-.92.54-1.39.81s-1,.59-1.55.91a8,8,0,0,0-1.16.94,5.5,5.5,0,0,1-1.11.87,26.78,26.78,0,0,0-3.15,2.08c-.55.4-1.1.8-1.66,1.17-.39.26-.82.49-1.27.73a16.63,16.63,0,0,0-1.58.93c-.79.55-1.54,1.15-2.26,1.73l-.88.71-1.07.68c-.77.49-1.53,1-2.28,1.5-.47.32-.92.66-1.37,1s-.75.57-1.13.84-1.05.72-1.58,1.08c-.8.54-1.64,1.1-2.43,1.7a5.66,5.66,0,0,1-4.11,1.41,3.93,3.93,0,0,1-3-1.8,4.77,4.77,0,0,1-.45-4c.54-1.69,1.27-3.37,2-5l.38-.87a48.06,48.06,0,0,1,2.15-4.56c.36-.63.67-1.29,1-1.94a18.59,18.59,0,0,1,1.88-3.29,27.09,27.09,0,0,0,1.75-2.68c.36-.6.72-1.21,1.11-1.79,1.08-1.6,2.23-3.19,3.41-4.73a4,4,0,0,1,1.25-1.1c.3-.16.61-.29.92-.42a7.83,7.83,0,0,0,2.5-1.52,16.36,16.36,0,0,0,4.76-1.09l1.3-.43a2.94,2.94,0,0,0,2-1.87,1.49,1.49,0,0,0,.73-.53,4.11,4.11,0,0,0,.85-3.71,22,22,0,0,0-1-2.52L72,23.1l-1.65-3.78-1.11-2.54c-.25-.57-.51-1.13-.77-1.7a35.38,35.38,0,0,1-1.67-4,4.44,4.44,0,0,0-2.7-3,9.4,9.4,0,0,0-1.21-.39c-2.42-.6-4.32-.2-5.8,1.22-.37.36-.73.74-1.09,1.11s-.9,1-1.37,1.37a5.3,5.3,0,0,1-.84.56,7.14,7.14,0,0,0-1.15.77c-1.49,1.3-2.93,2.67-4.28,4a16.05,16.05,0,0,0-1.33,1.5l-.16.2c-.3.37-.58.77-.9,1.25l-.76,1.12c-.53.78-1.05,1.57-1.61,2.33a1.24,1.24,0,0,1-.46.4c-.64.25-1.29.49-1.93.72s-1.19.42-1.78.65a1.72,1.72,0,0,0-.82.74,1.27,1.27,0,0,0-.44,0,1.64,1.64,0,0,0-1.07.83,4.87,4.87,0,0,1-2,2.12,1.51,1.51,0,0,0-.76,1c-.27,1-1.14,1.56-2.16,2.18l-.36.2a.25.25,0,0,1-.08-.22c0-2,0-4,0-5.94l0-2.84c0-2.78.06-5.57.1-8.35s.1-5.41.17-8.11a2.11,2.11,0,0,0-.63-1.61A2,2,0,0,0,30,4.3l-1.08.11c-.52.06-1,.11-1.51.12s-.89,0-1.34-.06-.91-.07-1.37-.07h0l-4.4,0c-2.22,0-4.43,0-6.65,0-1.6,0-3.2-.07-4.8-.13-1.39,0-2.78-.1-4.16-.12a2.9,2.9,0,0,0-2.26.89,2.09,2.09,0,0,0,0,2l.1.29a2.83,2.83,0,0,0,.32.65l.07.11a6.94,6.94,0,0,0,.2,2.62l-1.31.5,1.08,1.09c.33.33.33.7.28,1.52a5.64,5.64,0,0,0,.06,1.64,1.54,1.54,0,0,0-.34.84,1.61,1.61,0,0,0,.39,1.15,2.15,2.15,0,0,0,0,1.67c0,.08.05.16.07.25a2.35,2.35,0,0,1,0,.42c0,.1,0,.2,0,.29v.14c0,.17,0,.34,0,.51,0,.56,0,1.13-.06,1.69l0,.85a7.26,7.26,0,0,0,.09.72,4.36,4.36,0,0,1,.07.66c0,.88,0,1.77,0,2.65,0,.52,0,1,0,1.55a3.85,3.85,0,0,0,0,.54,1.75,1.75,0,0,1,0,.26c0,.4,0,.79,0,1.19,0,.65-.06,1.31-.06,2a7.26,7.26,0,0,0,.09,1,5.4,5.4,0,0,1,.07.71c0,1.24,0,2.49,0,3.73,0,.94,0,1.87,0,2.81,0,.35,0,.69,0,1s0,.74,0,1.11a3,3,0,0,1-.07.49,4.55,4.55,0,0,0-.1.9c0,2.19.07,4.38.12,6.57l0,.91c0,.2,0,.41,0,.61s0,.37,0,.56c0,.72,0,1.43,0,2.15l0,3.63c0,1.17,0,2.35,0,3.52,0,.45,0,.89,0,1.34s-.05,1.13-.05,1.69c0,1.95,0,4.52.11,7.12a3.51,3.51,0,0,1-.05.57,3.12,3.12,0,0,0,.29,2.16c0,.17-.07.33-.11.5a8.1,8.1,0,0,0-.23,1.43c0,1.08,0,2.17,0,3.22v.91a1.26,1.26,0,0,0,.1.48c0,.25,0,.5,0,.75a2.17,2.17,0,0,1-.05.28,1.89,1.89,0,0,0,.13,1.5,1.3,1.3,0,0,1-.08.5,2.75,2.75,0,0,0-.05,1.53,4.17,4.17,0,0,0-.24,2.13c0,.2,0,.39,0,.59A8,8,0,0,1,3,90.37a4.83,4.83,0,0,0,.52,3.69l.42.62.71-.22a3.5,3.5,0,0,1,2.53,0,2.48,2.48,0,0,0,1.38.07,5.23,5.23,0,0,0,.61-.14,4.19,4.19,0,0,1,.45-.1,2.94,2.94,0,0,1,.55.1,4.68,4.68,0,0,0,1.08.15c.61,0,1.22-.07,1.83-.12s1.08-.09,1.61-.11c1.36,0,2.75,0,4.09,0H19c1.94,0,3.88,0,5.81.1h.4c1.85,0,3.76.1,5.62.2a2.75,2.75,0,0,0,2.1-.6,1.78,1.78,0,0,0,.57-1.28c0-1.12,0-2.34,0-3.85,0-.94-.07-1.87-.11-2.8l0-.47a15.94,15.94,0,0,1,1.66.8A12.06,12.06,0,0,1,36,87a11,11,0,0,0,1.52,1,3.2,3.2,0,0,0,1.52.23,4,4,0,0,1,.5,0,27.93,27.93,0,0,1,3.26.63l1.27.29a31.18,31.18,0,0,0,6.88.53,34.14,34.14,0,0,0,5.59-.7l.13,0c3.53-.64,5.86-2.08,7.33-4.54a2.28,2.28,0,0,1,.27-.25l1-.86c1.11-.94,2.22-1.88,3.35-2.8,1.59-1.29,3.07-2.45,4.55-3.57.63-.48,1.28-.93,1.93-1.39s1.09-.76,1.63-1.16.84-.64,1.25-1c.58-.47,1.14-.91,1.72-1.3,1.2-.81,2.42-1.58,3.64-2.35l1.94-1.23,1.28-.84c.76-.51,1.54-1,2.32-1.48,1.05-.61,2.18-1.18,3.26-1.72l.74-.37L95.18,63,97.07,62C97.7,61.72,98.48,61.33,98.31,60.48Z" style="fill:#fff"/></svg>